<?xml version="1.0" encoding="utf-8"?>
<!-- Generator: Adobe Illustrator 15.1.0, SVG Export Plug-In . SVG Version: 6.00 Build 0)  -->
<!DOCTYPE svg PUBLIC "-//W3C//DTD SVG 1.1//EN" "http://www.w3.org/Graphics/SVG/1.1/DTD/svg11.dtd">
<svg version="1.1" id="Layer_1" xmlns="http://www.w3.org/2000/svg" xmlns:xlink="http://www.w3.org/1999/xlink" x="0px" y="0px"
   width="756.989px" height="533.337px" viewBox="186.304 92 756.989 533.337" enable-background="new 186.304 92 756.989 533.337"
   xml:space="preserve">
<path fill="#FF0000" d="M927.477,175.281c-8.707-32.781-34.355-58.597-66.93-67.358C801.519,92,564.799,92,564.799,92
  s-236.717,0-295.75,15.923c-32.574,8.761-58.229,34.577-66.929,67.358c-15.816,59.417-15.816,183.388-15.816,183.388
  s0,123.964,15.816,183.387c8.7,32.784,34.355,58.594,66.926,67.365c59.032,15.916,295.749,15.916,295.749,15.916
  s236.72,0,295.749-15.916c32.574-8.769,58.223-34.581,66.93-67.362c15.819-59.422,15.819-183.387,15.819-183.387
  s0-123.971-15.819-183.387"/>
<path fill="#FFFFFF" d="M487.379,471.224l197.849-112.549L487.379,246.113V471.224z"/>
</svg>
